<svg width="1440" height="199" viewBox="0 0 1440 199" fill="none" xmlns="http://www.w3.org/2000/svg">
<g clip-path="url(#clip0_47_55)">
<rect width="1440" height="199" fill="#131313"/>
<mask id="path-1-inside-1_47_55" fill="white">
<path d="M1360 -370.966H80V390.034H1360V-370.966Z"/>
</mask>
<path d="M1360 -370.966V-369.966H80V-370.966V-371.966H1360V-370.966Z" fill="black" mask="url(#path-1-inside-1_47_55)"/>
<rect width="85.3333" height="95.125" transform="matrix(-1 0 0 1 1360 -85.5913)" stroke="white" stroke-opacity="0.1" stroke-width="0.870748"/>
<rect width="85.3333" height="95.125" transform="matrix(-1 0 0 1 1274.67 -85.5913)" stroke="white" stroke-opacity="0.1" stroke-width="0.870748"/>
<rect width="85.3333" height="95.125" transform="matrix(-1 0 0 1 1189.33 -85.5913)" stroke="white" stroke-opacity="0.1" stroke-width="0.870748"/>
<rect width="85.3333" height="95.125" transform="matrix(-1 0 0 1 1104 -85.5913)" stroke="white" stroke-opacity="0.1" stroke-width="0.870748"/>
<rect width="85.3333" height="95.125" transform="matrix(-1 0 0 1 1018.67 -85.5913)" stroke="white" stroke-opacity="0.1" stroke-width="0.870748"/>
<rect width="85.3333" height="95.125" transform="matrix(-1 0 0 1 933.333 -85.5913)" stroke="white" stroke-opacity="0.1" stroke-width="0.870748"/>
<rect width="85.3333" height="95.125" transform="matrix(-1 0 0 1 848 -85.5913)" stroke="white" stroke-opacity="0.1" stroke-width="0.870748"/>
<rect width="85.3333" height="95.125" transform="matrix(-1 0 0 1 762.667 -85.5913)" stroke="white" stroke-opacity="0.1" stroke-width="0.870748"/>
<rect width="85.3333" height="95.125" transform="matrix(-1 0 0 1 677.333 -85.5913)" stroke="white" stroke-opacity="0.1" stroke-width="0.870748"/>
<rect width="85.3333" height="95.125" transform="matrix(-1 0 0 1 592 -85.5913)" stroke="white" stroke-opacity="0.1" stroke-width="0.870748"/>
<rect width="85.3333" height="95.125" transform="matrix(-1 0 0 1 506.667 -85.5913)" stroke="white" stroke-opacity="0.1" stroke-width="0.870748"/>
<rect width="85.3333" height="95.125" transform="matrix(-1 0 0 1 421.333 -85.5913)" stroke="white" stroke-opacity="0.1" stroke-width="0.870748"/>
<rect width="85.3333" height="95.125" transform="matrix(-1 0 0 1 336 -85.5913)" stroke="white" stroke-opacity="0.1" stroke-width="0.870748"/>
<rect width="85.3333" height="95.125" transform="matrix(-1 0 0 1 250.667 -85.5913)" stroke="white" stroke-opacity="0.1" stroke-width="0.870748"/>
<rect width="85.3333" height="95.125" transform="matrix(-1 0 0 1 165.334 -85.5913)" stroke="white" stroke-opacity="0.1" stroke-width="0.870748"/>
<rect opacity="0.35" width="85.3333" height="95.125" transform="matrix(-1 0 0 1 1360 9.53369)" fill="white" fill-opacity="0.2"/>
<path d="M1317 44.7432C1310.22 44.7432 1304.71 50.2566 1304.71 57.0336C1304.71 63.8106 1310.22 69.324 1317 69.324C1323.78 69.324 1329.29 63.8106 1329.29 57.0336C1329.29 50.2566 1323.78 44.7432 1317 44.7432ZM1317 65.2864C1312.44 65.2864 1308.75 61.5914 1308.75 57.0336C1308.75 52.4757 1312.44 48.7808 1317 48.7808C1321.56 48.7808 1325.25 52.4758 1325.25 57.0336C1325.25 61.5914 1321.56 65.2864 1317 65.2864Z" fill="white" fill-opacity="0.05"/>
<path d="M1340.06 53.5228L1331.57 38.8167C1330.32 36.6511 1327.99 35.3058 1325.49 35.3058H1308.51C1306.01 35.3058 1303.68 36.6511 1302.43 38.8167L1293.94 53.5228C1292.69 55.6884 1292.69 58.3791 1293.94 60.5448L1302.43 75.2509C1303.68 77.4165 1306.01 78.7618 1308.51 78.7618H1325.49C1327.99 78.7618 1330.32 77.4165 1331.57 75.2509L1340.06 60.5448C1341.31 58.3791 1341.31 55.6883 1340.06 53.5228ZM1317 72.1329C1308.67 72.1329 1301.9 65.3595 1301.9 57.0338C1301.9 48.708 1308.67 41.9346 1317 41.9346C1325.33 41.9346 1332.1 48.708 1332.1 57.0338C1332.1 65.3595 1325.33 72.1329 1317 72.1329Z" fill="white" fill-opacity="0.05"/>
<rect width="85.3333" height="95.125" transform="matrix(-1 0 0 1 1274.67 9.53369)" stroke="white" stroke-opacity="0.1" stroke-width="0.870748"/>
<rect width="85.3333" height="95.125" transform="matrix(-1 0 0 1 1189.33 9.53369)" stroke="white" stroke-opacity="0.1" stroke-width="0.870748"/>
<rect width="85.3333" height="95.125" transform="matrix(-1 0 0 1 1104 9.53369)" stroke="white" stroke-opacity="0.1" stroke-width="0.870748"/>
<rect width="85.3333" height="95.125" transform="matrix(-1 0 0 1 1018.67 9.53369)" stroke="white" stroke-opacity="0.1" stroke-width="0.870748"/>
<rect width="85.3333" height="95.125" transform="matrix(-1 0 0 1 933.333 9.53369)" stroke="white" stroke-opacity="0.1" stroke-width="0.870748"/>
<rect width="85.3333" height="95.125" transform="matrix(-1 0 0 1 848 9.53369)" stroke="white" stroke-opacity="0.1" stroke-width="0.870748"/>
<rect width="85.3333" height="95.125" transform="matrix(-1 0 0 1 762.667 9.53369)" stroke="white" stroke-opacity="0.1" stroke-width="0.870748"/>
<rect width="85.3333" height="95.125" transform="matrix(-1 0 0 1 677.333 9.53369)" stroke="white" stroke-opacity="0.1" stroke-width="0.870748"/>
<rect width="85.3333" height="95.125" transform="matrix(-1 0 0 1 592 9.53369)" stroke="white" stroke-opacity="0.1" stroke-width="0.870748"/>
<rect width="85.3333" height="95.125" transform="matrix(-1 0 0 1 506.667 9.53369)" stroke="white" stroke-opacity="0.1" stroke-width="0.870748"/>
<rect opacity="0.35" width="85.3333" height="95.125" transform="matrix(-1 0 0 1 421.333 9.53369)" fill="white" fill-opacity="0.2"/>
<g clip-path="url(#clip1_47_55)">
<path d="M379.001 44.7432C372.224 44.7432 366.71 50.2566 366.71 57.0336C366.71 63.8106 372.224 69.324 379.001 69.324C385.778 69.324 391.291 63.8106 391.291 57.0336C391.291 50.2566 385.778 44.7432 379.001 44.7432ZM379.001 65.2864C374.443 65.2864 370.748 61.5914 370.748 57.0336C370.748 52.4757 374.443 48.7808 379.001 48.7808C383.558 48.7808 387.253 52.4758 387.253 57.0336C387.253 61.5914 383.558 65.2864 379.001 65.2864Z" fill="white" fill-opacity="0.05"/>
<path d="M402.062 53.5228L393.572 38.8167C392.322 36.6511 389.991 35.3058 387.491 35.3058H370.51C368.009 35.3058 365.679 36.6511 364.428 38.8167L355.938 53.5228C354.688 55.6884 354.688 58.3791 355.938 60.5448L364.428 75.2509C365.679 77.4165 368.009 78.7618 370.51 78.7618H387.491C389.991 78.7618 392.322 77.4165 393.572 75.2509L402.063 60.5448C403.313 58.3791 403.313 55.6883 402.062 53.5228ZM379 72.1329C370.674 72.1329 363.901 65.3595 363.901 57.0338C363.901 48.708 370.674 41.9346 379 41.9346C387.326 41.9346 394.099 48.708 394.099 57.0338C394.099 65.3595 387.326 72.1329 379 72.1329Z" fill="white" fill-opacity="0.05"/>
</g>
<rect width="85.3333" height="95.125" transform="matrix(-1 0 0 1 336 9.53369)" stroke="white" stroke-opacity="0.1" stroke-width="0.870748"/>
<rect width="85.3333" height="95.125" transform="matrix(-1 0 0 1 250.667 9.53369)" stroke="white" stroke-opacity="0.1" stroke-width="0.870748"/>
<rect width="85.3333" height="95.125" transform="matrix(-1 0 0 1 165.333 9.53369)" stroke="white" stroke-opacity="0.1" stroke-width="0.870748"/>
<rect width="85.3333" height="95.125" transform="matrix(-1 0 0 1 1360 104.659)" stroke="white" stroke-opacity="0.1" stroke-width="0.870748"/>
<rect width="85.3333" height="95.125" transform="matrix(-1 0 0 1 1274.67 104.659)" stroke="white" stroke-opacity="0.1" stroke-width="0.870748"/>
<rect width="85.3333" height="95.125" transform="matrix(-1 0 0 1 1189.33 104.659)" stroke="white" stroke-opacity="0.1" stroke-width="0.870748"/>
<rect width="85.3333" height="95.125" transform="matrix(-1 0 0 1 1104 104.659)" stroke="white" stroke-opacity="0.1" stroke-width="0.870748"/>
<rect width="85.3333" height="95.125" transform="matrix(-1 0 0 1 1018.67 104.659)" stroke="white" stroke-opacity="0.1" stroke-width="0.870748"/>
<rect width="85.3333" height="95.125" transform="matrix(-1 0 0 1 933.333 104.659)" stroke="white" stroke-opacity="0.1" stroke-width="0.870748"/>
<rect width="85.3333" height="95.125" transform="matrix(-1 0 0 1 848 104.659)" stroke="white" stroke-opacity="0.1" stroke-width="0.870748"/>
<rect opacity="0.6" width="85.3333" height="95.125" transform="matrix(-1 0 0 1 762.667 104.659)" fill="white" fill-opacity="0.2"/>
<g clip-path="url(#clip2_47_55)">
<path d="M720 139.743C713.223 139.743 707.71 145.257 707.71 152.034C707.71 158.811 713.223 164.324 720 164.324C726.777 164.324 732.291 158.811 732.291 152.034C732.291 145.257 726.777 139.743 720 139.743ZM720 160.286C715.442 160.286 711.747 156.591 711.747 152.034C711.747 147.476 715.442 143.781 720 143.781C724.558 143.781 728.253 147.476 728.253 152.034C728.253 156.591 724.558 160.286 720 160.286Z" fill="black" fill-opacity="0.2"/>
<path d="M743.062 148.523L734.571 133.817C733.321 131.651 730.991 130.306 728.49 130.306H711.509C709.009 130.306 706.678 131.651 705.428 133.817L696.937 148.523C695.687 150.688 695.687 153.379 696.937 155.545L705.428 170.251C706.678 172.417 709.008 173.762 711.509 173.762H728.49C730.991 173.762 733.321 172.417 734.572 170.251L743.062 155.545C744.312 153.379 744.312 150.688 743.062 148.523ZM720 167.133C711.674 167.133 704.901 160.36 704.901 152.034C704.901 143.708 711.674 136.935 720 136.935C728.326 136.935 735.099 143.708 735.099 152.034C735.099 160.36 728.325 167.133 720 167.133Z" fill="black" fill-opacity="0.2"/>
</g>
<rect width="85.3333" height="95.125" transform="matrix(-1 0 0 1 677.333 104.659)" stroke="white" stroke-opacity="0.1" stroke-width="0.870748"/>
<rect width="85.3333" height="95.125" transform="matrix(-1 0 0 1 592 104.659)" stroke="white" stroke-opacity="0.1" stroke-width="0.870748"/>
<rect width="85.3333" height="95.125" transform="matrix(-1 0 0 1 506.667 104.659)" stroke="white" stroke-opacity="0.1" stroke-width="0.870748"/>
<rect width="85.3333" height="95.125" transform="matrix(-1 0 0 1 421.333 104.659)" stroke="white" stroke-opacity="0.1" stroke-width="0.870748"/>
<rect width="85.3333" height="95.125" transform="matrix(-1 0 0 1 336 104.659)" stroke="white" stroke-opacity="0.1" stroke-width="0.870748"/>
<rect width="85.3333" height="95.125" transform="matrix(-1 0 0 1 250.667 104.659)" stroke="white" stroke-opacity="0.1" stroke-width="0.870748"/>
<rect width="85.3333" height="95.125" transform="matrix(-1 0 0 1 165.333 104.659)" stroke="white" stroke-opacity="0.1" stroke-width="0.870748"/>
</g>
<defs>
<clipPath id="clip0_47_55">
<rect width="1440" height="199" fill="white"/>
</clipPath>
<clipPath id="clip1_47_55">
<rect width="48" height="48" fill="white" transform="translate(355 33.0337)"/>
</clipPath>
<clipPath id="clip2_47_55">
<rect width="48" height="48" fill="white" transform="translate(696 128.034)"/>
</clipPath>
</defs>
</svg>
